<svg width="16" height="16" viewBox="0 0 16 16" fill="none" xmlns="http://www.w3.org/2000/svg">
<path d="M10.3607 2.38984C10.4705 2.46049 10.5572 2.56183 10.6099 2.6813C10.6626 2.80076 10.6791 2.93309 10.6573 3.06184L10.1787 5.87851C10.1403 6.10433 10.1607 6.33622 10.238 6.55184L11.4447 9.91851C12.0313 10.0345 12.5513 10.1852 12.956 10.3698C13.2 10.4812 13.4387 10.6205 13.6253 10.8005C13.8127 10.9812 14 11.2558 14 11.6165C14 12.1818 13.558 12.5298 13.2533 12.7098C12.9047 12.9158 12.444 13.0785 11.9333 13.2058C10.9013 13.4638 9.51067 13.6165 8 13.6165C6.48933 13.6165 5.09867 13.4638 4.06667 13.2058C3.556 13.0785 3.09533 12.9158 2.74667 12.7098C2.442 12.5298 2 12.1818 2 11.6165C2 11.2565 2.18667 10.9812 2.37467 10.8005C2.56133 10.6205 2.8 10.4805 3.044 10.3698C3.44933 10.1852 3.96867 10.0345 4.556 9.91784L6.196 5.34051C6.38701 4.80723 6.74287 4.34864 7.212 4.03118L9.62667 2.39784C9.73474 2.32473 9.86189 2.28493 9.99237 2.28339C10.1228 2.28185 10.2509 2.3193 10.3607 2.38984ZM12.5187 3.90384C12.632 3.66851 12.67 3.63784 12.744 3.76518L12.7887 3.85051L12.8147 3.90384C13.1009 4.5002 13.5395 5.01049 14.086 5.38318L14.2367 5.48118C14.412 5.58784 14.442 5.61851 14.2887 5.71984L14.2367 5.75251C13.6733 6.09849 13.2111 6.58691 12.8967 7.16851L12.744 7.46784C12.6707 7.59518 12.632 7.56451 12.5187 7.32918C12.2324 6.73282 11.7939 6.22253 11.2473 5.84984L11.0093 5.69651C10.9167 5.62984 10.9227 5.59451 11.0447 5.51384L11.0967 5.48051C11.7123 5.10248 12.206 4.55509 12.5187 3.90384ZM5.06533 2.05984L5.11133 2.14184C5.32067 2.52851 5.63667 2.85918 6.02867 3.10518L6.17933 3.19251C6.30267 3.25984 6.32133 3.28451 6.256 3.32918L6.17933 3.37384C5.77913 3.588 5.44021 3.90076 5.19467 4.28251L5.06067 4.51184C5.00933 4.58918 4.982 4.58251 4.93533 4.50651L4.88867 4.42518C4.6716 4.02995 4.35547 3.69798 3.97133 3.46184L3.82067 3.37384C3.69733 3.30651 3.67867 3.28184 3.744 3.23718L3.82067 3.19251C4.22087 2.97836 4.55979 2.6656 4.80533 2.28384L4.88867 2.14184C4.97667 1.97984 5.00533 1.96251 5.06533 2.05984Z" fill="white"/>
</svg>
