<svg width="16" height="16" viewBox="0 0 16 16" fill="none" xmlns="http://www.w3.org/2000/svg">
<path d="M7.56032 12.7328L6.7017 13.5914L4.98445 11.8742L3.01563 13.843C2.89997 13.9476 2.74853 14.0037 2.59264 13.9998C2.43674 13.9959 2.28832 13.9322 2.17805 13.8219C2.06778 13.7117 2.00411 13.5633 2.00019 13.4074C1.99628 13.2515 2.05242 13.1 2.15701 12.9844L4.12583 11.0155L2.40859 9.2983L3.26721 8.43967L7.56032 12.7328ZM14 5.43449L7.34309 11.3075L6.32133 10.2857L12.1574 4.45051C12.1973 4.41065 12.229 4.36332 12.2506 4.31122C12.2722 4.25912 12.2834 4.20327 12.2834 4.14686C12.2835 4.09045 12.2724 4.03459 12.2508 3.98246C12.2293 3.93033 12.1977 3.88295 12.1578 3.84303C12.118 3.80312 12.0706 3.77145 12.0185 3.74982C11.9664 3.7282 11.9106 3.71705 11.8542 3.71701C11.7978 3.71697 11.7419 3.72804 11.6898 3.74959C11.6376 3.77114 11.5903 3.80275 11.5503 3.84261L5.71428 9.67781L4.69252 8.65605L10.5655 2H14V5.43449Z" fill="white"/>
</svg>
