<svg width="16" height="16" viewBox="0 0 16 16" fill="none" xmlns="http://www.w3.org/2000/svg">
<path d="M2.73333 1.86667C2.8564 1.86667 2.97889 1.86898 3.1008 1.8736L3.12333 1.86927C3.17187 1.86522 3.21867 1.86869 3.26373 1.87967C8.58507 2.1466 12.8517 6.41407 13.1195 11.7354C13.1309 11.7816 13.1348 11.8293 13.1307 11.8767C13.1307 11.8836 13.1264 11.8914 13.1255 11.8983C13.1307 12.0208 13.1333 12.1436 13.1333 12.2667C13.1333 12.4965 13.042 12.717 12.8795 12.8795C12.717 13.042 12.4965 13.1333 12.2667 13.1333C12.0368 13.1333 11.8164 13.042 11.6538 12.8795C11.4913 12.717 11.4 12.4965 11.4 12.2667C11.3994 12.2233 11.3983 12.1806 11.3965 12.1384L6.78933 11.6765L4.46667 14L3.9068 12.3187L3.7794 12.4461C3.69945 12.5288 3.60382 12.5949 3.49808 12.6403C3.39235 12.6857 3.27862 12.7096 3.16355 12.7106C3.04847 12.7116 2.93435 12.6897 2.82784 12.6461C2.72133 12.6025 2.62456 12.5382 2.54319 12.4568C2.46182 12.3754 2.39746 12.2787 2.35389 12.1722C2.31031 12.0657 2.28838 11.9515 2.28938 11.8365C2.29038 11.7214 2.31429 11.6077 2.35971 11.5019C2.40513 11.3962 2.47116 11.3005 2.55393 11.2206L2.68047 11.0941L1 10.5333L3.3218 8.21067L2.86073 3.6026L2.73333 3.6C2.50348 3.6 2.28304 3.50869 2.12051 3.34616C1.95798 3.18363 1.86667 2.96319 1.86667 2.73333C1.86667 2.50348 1.95798 2.28304 2.12051 2.12051C2.28304 1.95798 2.50348 1.86667 2.73333 1.86667ZM7.06667 9.1588V10.8341L11.3393 11.2622C11.1504 9.61759 10.4921 8.06211 9.44307 6.78153L7.06667 9.1588ZM4.1642 7.93333H5.8412L8.2176 5.55607C6.93712 4.50669 5.38163 3.84809 3.73693 3.65893L4.1642 7.93333ZM12.7 6.2L8.8 2.3L14 1L12.7 6.2Z" fill="white"/>
</svg>
